<svg width="100" height="100" viewBox="0 0 100 100" fill="none" xmlns="http://www.w3.org/2000/svg">
<rect width="100" height="100" rx="29" fill="#1890FF"/>
<path d="M50.939 80.296C44.945 80.296 39.545 79.054 34.739 76.57C29.933 74.032 26.153 70.522 23.399 66.04C20.699 61.504 19.349 56.374 19.349 50.65C19.349 44.926 20.699 39.823 23.399 35.341C26.153 30.805 29.933 27.295 34.739 24.811C39.545 22.273 44.945 21.004 50.939 21.004C56.447 21.004 61.361 21.976 65.681 23.92C70.001 25.864 73.565 28.672 76.373 32.344L64.304 43.117C60.794 38.689 56.663 36.475 51.911 36.475C47.915 36.475 44.702 37.771 42.272 40.363C39.842 42.901 38.627 46.33 38.627 50.65C38.627 54.97 39.842 58.426 42.272 61.018C44.702 63.556 47.915 64.825 51.911 64.825C56.663 64.825 60.794 62.611 64.304 58.183L76.373 68.956C73.565 72.628 70.001 75.436 65.681 77.38C61.361 79.324 56.447 80.296 50.939 80.296Z" fill="white"/>
</svg>
