<svg width="14" height="8" viewBox="0 0 14 8" fill="none" xmlns="http://www.w3.org/2000/svg">
<path d="M9 4C9 6.20914 7.20914 8 5 8C2.79086 8 1 6.20914 1 4C1 1.79086 2.79086 0 5 0C7.20914 0 9 1.79086 9 4ZM1.99873 4C1.99873 5.65756 3.34244 7.00127 5 7.00127C6.65756 7.00127 8.00127 5.65756 8.00127 4C8.00127 2.34244 6.65756 0.998729 5 0.998729C3.34244 0.998729 1.99873 2.34244 1.99873 4Z" fill="black" fill-opacity="0.3"/>
<path fill-rule="evenodd" clip-rule="evenodd" d="M5 1.5C4.72386 1.5 4.5 1.72386 4.5 2V4C4.5 4.27614 4.72386 4.5 5 4.5H7C7.27614 4.5 7.5 4.27614 7.5 4C7.5 3.72386 7.27614 3.5 7 3.5H5.5V2C5.5 1.72386 5.27614 1.5 5 1.5Z" fill="black" fill-opacity="0.3"/>
</svg>
