<svg width="14" height="8" viewBox="0 0 14 8" fill="none" xmlns="http://www.w3.org/2000/svg">
<g clip-path="url(#clip0_1508_63)">
<path fill-rule="evenodd" clip-rule="evenodd" d="M3.90892 7.99991C3.72492 7.99991 3.54892 7.92391 3.42292 7.78991L0.180921 4.33725C-0.0717453 4.06925 -0.0577453 3.64725 0.210255 3.39525C0.478921 3.14325 0.900921 3.15658 1.15225 3.42458L3.90225 6.35191L9.50759 0.217246C9.75692 -0.0554209 10.1783 -0.0734209 10.4503 0.174579C10.7216 0.422579 10.7403 0.844579 10.4923 1.11591L4.40092 7.78258C4.27625 7.91991 4.09892 7.99858 3.91359 7.99991H3.90892Z" fill="#1890FF"/>
<path fill-rule="evenodd" clip-rule="evenodd" d="M6.42292 7.78991C6.54892 7.92391 6.72492 7.99991 6.90892 7.99991H6.91359C7.09892 7.99858 7.27625 7.91991 7.40092 7.78258L13.4923 1.11591C13.7403 0.844579 13.7216 0.422579 13.4503 0.174579C13.1783 -0.0734209 12.7569 -0.0554209 12.5076 0.217246L6.90225 6.35191L6.70576 6.14275L5.7901 7.11597L6.42292 7.78991ZM4.13734 5.35582L5.05262 4.383L4.15225 3.42458C3.90092 3.15658 3.47892 3.14325 3.21025 3.39525C2.94225 3.64725 2.92825 4.06925 3.18092 4.33725L4.13734 5.35582Z" fill="#1890FF"/>
</g>
<defs>
<clipPath id="clip0_1508_63">
<rect width="14" height="8" fill="white"/>
</clipPath>
</defs>
</svg>
