<svg width="50" height="50" viewBox="0 0 50 50" fill="none" xmlns="http://www.w3.org/2000/svg">
<g clip-path="url(#clip0_1797_2)">
<path d="M1.18047 17.3915C0.414648 19.7907 -9.7639e-05 22.3466 1.72417e-08 24.9999C-9.7639e-05 27.6532 0.414746 30.2093 1.18057 32.6085L25 33.6957L48.8194 32.6087C49.5852 30.2094 50.0001 27.6532 50.0001 25C50 22.3467 49.5853 19.7907 48.8194 17.3914L25 16.3044L1.18047 17.3915Z" fill="#F0F0F0"/>
<path d="M48.8193 17.3914L24.9999 16.3044L1.18037 17.3914C0.953418 18.1027 0.758008 18.828 0.594238 19.5653H49.4052C49.2416 18.8279 49.0463 18.1025 48.8193 17.3914Z" fill="#D80027"/>
<path d="M0.594543 30.4346C0.758118 31.1719 0.953528 31.8971 1.18048 32.6084L1.18282 32.6085L24.9998 33.6954L48.8192 32.6085C49.0462 31.8972 49.2416 31.1719 49.4053 30.4346H0.594543Z" fill="#D80027"/>
<path d="M24.9999 49.9999C36.1538 49.9999 45.6001 42.695 48.8194 32.6086H1.18057C4.39981 42.6949 13.8463 49.9999 24.9999 49.9999V49.9999Z" fill="#23C840"/>
<path d="M24.9999 0.000122071C13.8462 0.000219728 4.39991 7.3052 1.18048 17.3914L48.8192 17.3915C45.6002 7.3051 36.1538 2.44151e-05 24.9999 0.000122071V0.000122071Z" fill="#04AAC8"/>
<path fill-rule="evenodd" clip-rule="evenodd" d="M15.9722 15.2778C16.9718 15.2778 17.9009 14.9761 18.6734 14.4588C18.584 14.4647 18.4937 14.4677 18.4028 14.4677C16.1655 14.4677 14.3519 12.654 14.3519 10.4168C14.3519 8.17949 16.1655 6.36583 18.4028 6.36583C18.4939 6.36583 18.5842 6.36883 18.6738 6.37474C17.9012 5.85732 16.9719 5.55554 15.9722 5.55554C13.2875 5.55554 11.1111 7.73194 11.1111 10.4167C11.1111 13.1014 13.2875 15.2778 15.9722 15.2778ZM24.0741 13.6573C24.0741 14.5522 23.3486 15.2777 22.4537 15.2777C21.5588 15.2777 20.8333 14.5522 20.8333 13.6573C20.8333 12.7624 21.5588 12.0369 22.4537 12.0369C23.3486 12.0369 24.0741 12.7624 24.0741 13.6573ZM28.9352 8.79628C29.8301 8.79628 30.5555 8.07082 30.5555 7.17591C30.5555 6.28101 29.8301 5.55554 28.9352 5.55554C28.0403 5.55554 27.3148 6.28101 27.3148 7.17591C27.3148 8.07082 28.0403 8.79628 28.9352 8.79628ZM37.0371 7.17591C37.0371 8.07082 36.3116 8.79628 35.4167 8.79628C34.5218 8.79628 33.7963 8.07082 33.7963 7.17591C33.7963 6.28101 34.5218 5.55554 35.4167 5.55554C36.3116 5.55554 37.0371 6.28101 37.0371 7.17591ZM35.4167 15.2777C36.3116 15.2777 37.0371 14.5522 37.0371 13.6573C37.0371 12.7624 36.3116 12.0369 35.4167 12.0369C34.5218 12.0369 33.7963 12.7624 33.7963 13.6573C33.7963 14.5522 34.5218 15.2777 35.4167 15.2777ZM30.5555 13.6573C30.5555 14.5522 29.8301 15.2777 28.9352 15.2777C28.0403 15.2777 27.3148 14.5522 27.3148 13.6573C27.3148 12.7624 28.0403 12.0369 28.9352 12.0369C29.8301 12.0369 30.5555 12.7624 30.5555 13.6573Z" fill="white"/>
</g>
<defs>
<clipPath id="clip0_1797_2">
<rect width="50" height="50" fill="white"/>
</clipPath>
</defs>
</svg>
